<svg id="eft2kUG31ON1" xmlns="http://www.w3.org/2000/svg" xmlns:xlink="http://www.w3.org/1999/xlink" viewBox="0 0 300 300" shape-rendering="geometricPrecision" text-rendering="geometricPrecision" project-id="0f47f07e57d64ef7a16e97b7754363fa" export-id="c96878682a574acba924820e148a3d2a" cached="false"><g transform="translate(-.000007 9.911108)"><path d="M39.99988,117.90053c.000005-7.349361.596306-14.207113,1.660658-20.534187.996634-5.924525,2.403655-11.383752,4.115773-16.345604c3.409209-9.88016,8.028114-17.788244,13.025424-23.471012c5.516268-7.156471,11.759107-13.803501,18.644188-19.722854c7.171489-6.165588,15.039764-11.5417,23.50953-15.881719c8.307608-4.256926,17.193897-7.517053,26.56894-9.547657C134.740374,10.83454,142.245911,10,150,10c8.765916,0,17.292346,1.005791,25.465894,2.906141c7.878423,1.831734,15.428988,4.494594,22.550144,7.888967c7.448354,3.550335,14.426932,7.900951,20.819534,12.937863c7.188854,5.664302,13.636663,12.196517,19.178173,19.434543c3.830256,5.002878,7.227529,10.342957,10.137248,15.966707c3.599769,6.957443,6.453313,14.349059,8.457302,22.073492c2.214725,8.536717,3.391825,17.479927,3.391825,26.692817c0,4.858991-.21741,8.829816-.961818,14.331857s-2.265677,12.457901-4.183766,18.379086c-2.219518,6.851703-5.11769,13.406788-8.617055,19.589273-4.135892,7.307065-9.111581,14.093654-14.799185,20.234324-3.110951,3.358766-6.434891,6.524287-9.950893,9.476038-2.866213,2.406242-8.377261-52.111004-11.487403-50c0-.271435-.150473-1.252621-.317827-3.913603C209.47252,142.663975,209,137.793357,209,132.232387c0-2.034535-1.523321,1.876437-2-.321279-2.060297-9.498922-4.700333-24.559583-6-32-.174757-1.000462-1-1.865421-1-2.544765c0-3.308581.12809-5.174819-1-6.15863-2.539345-2.214571-8.14875-1.241465-16-1.241465-6.232831,0-57.050083.976998-63,0-4.945929-.81214-15.713356-1.218288-20,1.241465-2.133421,1.224195,1.268692,7.564566-1,6.703395-.569704-.216253-1.413574,12.028703-2,13.088892-5.034103,9.101047-9.336096,60.621687-14,69-3.204032,5.755775,2.671447,5.862999,0,4-.974802-.679802-.049118,8.709838-1,8-1.454037-1.085446.395982,6.153596-1,5-.160609-.132722.311349.210024-1,1.268607-.095909-.080177-1.503025,1.629463-1.59865,1.548969-.605866-.510003-1.20601-1.026361-1.800324-1.548969-5.814197-5.1127-11.070406-10.823607-15.668023-17.03404-4.892255-6.608427-9.038803-13.782456-12.318434-21.403189-5.547566-12.890633-8.614669-27.059397-8.614669-41.930848h-.00002Z" transform="translate(.00001 0.088892)" fill="#dd2726" stroke-width="0"/><g><line x1="-9.981352" y1="55.016876" x2="9.981352" y2="-55.016876" transform="translate(90.018649 144.983124)" fill="none" stroke="#dd2726" stroke-width="3"/><line x1="-50" y1="0.016876" x2="50" y2="-0.016876" transform="translate(150 89.983124)" fill="none" stroke="#dd2726" stroke-width="3"/><line x1="-10" y1="-55" x2="10" y2="55" transform="translate(210 145)" fill="#dd2726" stroke="#dd2726" stroke-width="3"/></g><g transform="translate(0 17.500002)"><g><line x1="0" y1="13.432427" x2="0" y2="-20" transform="matrix(-1 0 0 0.747777 130 79.95554)" fill="none" stroke="#000" stroke-width="3"/><line x1="0" y1="4.999925" x2="0" y2="-20" transform="matrix(-1 0 0 1.000003 170 85.00006)" fill="none" stroke="#000" stroke-width="3"/></g><g transform="translate(.000001 0.000001)"><path d="M128.52128,64.99999c.723994-8.991429,5.724703-19.687876,20.734279-20.00054c2.893299.316298,18.96099.204865,20.787009,20.00054" transform="matrix(.964586 0 0 0.999973 6.030187 0.001755)" fill="none" stroke="#000" stroke-width="3" stroke-linecap="round"/></g></g></g></svg>
